<svg width="32" height="32" viewBox="0 0 32 32" fill="none" xmlns="http://www.w3.org/2000/svg">
<g clip-path="url(#clip0_2739_70791)">
<path fill-rule="evenodd" clip-rule="evenodd" d="M0 16.0893C0 24.0447 5.77777 30.6592 13.3333 32V20.4444H9.33333V16H13.3333V12.4444C13.3333 8.44443 15.9111 6.22221 19.5556 6.22221C20.7111 6.22221 21.9556 6.39999 23.1111 6.57776V10.6667H21.0667C19.1111 10.6667 18.6667 11.6444 18.6667 12.8889V16H22.9333L22.2223 20.4444H18.6667V32C26.2223 30.6592 32 24.0447 32 16.0893C32 7.24023 24.8 0 16 0C7.2 0 0 7.24023 0 16.0893Z" fill="#1E293B"/>
</g>
<defs>
<clipPath id="clip0_2739_70791">
<rect width="32" height="32" fill="white"/>
</clipPath>
</defs>
</svg>
