<svg width="32" height="32" viewBox="0 0 32 32" fill="none" xmlns="http://www.w3.org/2000/svg">
<rect x="1" y="1" width="30" height="30" rx="15" stroke="#1E293B" stroke-width="2"/>
<path d="M12.25 16H16V19.75M9.2575 16H9.25M13.0075 19.75H13M16.0075 22.75H16M22.7575 16H22.75M9.25 19.75H10.375M18.625 16H20.125M9.25 22.75H13M16 8.5V13M20.2 22.75H21.55C21.97 22.75 22.1801 22.75 22.3405 22.6683C22.4816 22.5963 22.5963 22.4816 22.6683 22.3405C22.75 22.1801 22.75 21.97 22.75 21.55V20.2C22.75 19.78 22.75 19.5699 22.6683 19.4095C22.5963 19.2684 22.4816 19.1537 22.3405 19.0817C22.1801 19 21.97 19 21.55 19H20.2C19.78 19 19.5699 19 19.4095 19.0817C19.2684 19.1537 19.1537 19.2684 19.0817 19.4095C19 19.5699 19 19.78 19 20.2V21.55C19 21.97 19 22.1801 19.0817 22.3405C19.1537 22.4816 19.2684 22.5963 19.4095 22.6683C19.5699 22.75 19.78 22.75 20.2 22.75ZM20.2 13H21.55C21.97 13 22.1801 13 22.3405 12.9183C22.4816 12.8463 22.5963 12.7316 22.6683 12.5905C22.75 12.4301 22.75 12.22 22.75 11.8V10.45C22.75 10.03 22.75 9.81994 22.6683 9.65951C22.5963 9.51839 22.4816 9.40365 22.3405 9.33175C22.1801 9.25 21.97 9.25 21.55 9.25H20.2C19.78 9.25 19.5699 9.25 19.4095 9.33175C19.2684 9.40365 19.1537 9.51839 19.0817 9.65951C19 9.81994 19 10.03 19 10.45V11.8C19 12.22 19 12.4301 19.0817 12.5905C19.1537 12.7316 19.2684 12.8463 19.4095 12.9183C19.5699 13 19.78 13 20.2 13ZM10.45 13H11.8C12.22 13 12.4301 13 12.5905 12.9183C12.7316 12.8463 12.8463 12.7316 12.9183 12.5905C13 12.4301 13 12.22 13 11.8V10.45C13 10.03 13 9.81994 12.9183 9.65951C12.8463 9.51839 12.7316 9.40365 12.5905 9.33175C12.4301 9.25 12.22 9.25 11.8 9.25H10.45C10.03 9.25 9.81994 9.25 9.65951 9.33175C9.51839 9.40365 9.40365 9.51839 9.33175 9.65951C9.25 9.81994 9.25 10.03 9.25 10.45V11.8C9.25 12.22 9.25 12.4301 9.33175 12.5905C9.40365 12.7316 9.51839 12.8463 9.65951 12.9183C9.81994 13 10.03 13 10.45 13Z" stroke="#1E293B" stroke-width="2" stroke-linecap="round" stroke-linejoin="round"/>
</svg>
