<svg width="197" height="80" viewBox="0 0 197 80" fill="none" xmlns="http://www.w3.org/2000/svg">
<g filter="url(#filter0_d_2622_55526)">
<g clip-path="url(#clip0_2622_55526)">
<rect x="8" y="8" width="62.5154" height="63.9693" fill="white"/>
<path fill-rule="evenodd" clip-rule="evenodd" d="M58.2974 41.38H57.5055C57.4303 41.38 55.661 41.3636 54.3124 40.0044L50.3485 35.9964C50.0669 35.7125 49.8056 35.5679 49.5717 35.5679C49.3377 35.5679 49.0771 35.7113 48.7958 35.9942L47.6075 37.1981C47.4977 37.3097 47.347 37.3727 47.1915 37.3727C47.0373 37.3727 46.8866 37.3097 46.778 37.1981C46.778 37.1981 44.7948 35.1945 44.0004 34.3941C43.7208 34.1088 43.4576 33.9651 43.2254 33.9651C42.9918 33.9651 42.7303 34.1088 42.4499 34.3923L41.2585 35.5947C41.0405 35.8165 40.6519 35.8182 40.4314 35.5947L36.8775 32.0061L31.7392 37.1981C31.628 37.3097 31.4789 37.3727 31.3227 37.3727C31.1681 37.3727 31.0194 37.3097 30.9107 37.1981L29.7184 35.9942C29.1591 35.4278 28.7319 35.4278 28.1688 35.9942L24.2017 40.0044C22.8549 41.3636 21.0846 41.38 21.0103 41.38H20.2172C19.8922 41.38 19.6309 41.1136 19.6309 40.7864C19.6309 40.46 19.8922 40.1952 20.2172 40.1952H21.0103C21.0204 40.1952 22.3762 40.1699 23.3721 39.1661L27.3393 35.1586C28.3552 34.1301 29.5311 34.1289 30.55 35.1586L31.3227 35.942L36.4628 30.7499C36.693 30.5183 37.0638 30.5183 37.2914 30.7499L40.8446 34.3386L41.6193 33.5558C42.1291 33.0412 42.6679 32.7806 43.2254 32.7806C43.7811 32.7806 44.3201 33.0412 44.8287 33.5558C45.3963 34.1264 46.5674 35.3097 47.1915 35.942L47.9672 35.1586C48.4756 34.6451 49.0144 34.3838 49.5717 34.3838C50.128 34.3838 50.667 34.6433 51.1772 35.1586L55.1431 39.1661C56.1496 40.1829 57.4925 40.1952 57.5055 40.1952H58.2974C58.6223 40.1952 58.8847 40.46 58.8847 40.7864C58.8847 41.1136 58.6223 41.38 58.2974 41.38" fill="#81B941"/>
<path fill-rule="evenodd" clip-rule="evenodd" d="M58.2974 37.7288H57.5055C57.4303 37.7288 55.661 37.7128 54.3124 36.3527L50.3468 32.3458C49.7857 31.7784 49.3589 31.7784 48.7958 32.3458L47.6075 33.5479C47.3862 33.7703 46.9971 33.7703 46.778 33.5479L44.0004 30.742C43.436 30.1722 43.0136 30.1703 42.4499 30.742L41.2585 31.9447C41.0305 32.1753 40.6597 32.1753 40.4314 31.9455L36.8775 28.3559L31.7392 33.5479C31.5089 33.7785 31.1377 33.7785 30.9107 33.5479L29.7184 32.3458C29.1591 31.7784 28.7298 31.7784 28.1688 32.3458L24.2017 36.3527C22.8549 37.7128 21.0846 37.7288 21.0103 37.7288H20.2172C19.8922 37.7288 19.6309 37.4639 19.6309 37.1374C19.6309 36.8081 19.8922 36.5445 20.2172 36.5445H21.0103C21.0204 36.5445 22.3762 36.5209 23.3721 35.5155L27.3393 31.5069C28.3568 30.4814 29.5311 30.4788 30.55 31.5069L31.3227 32.2903L36.4628 27.0991C36.693 26.868 37.0638 26.868 37.2914 27.0991L40.8446 30.6884L41.6193 29.9042C42.6396 28.8729 43.8082 28.8748 44.8287 29.9042L47.1915 32.2903L47.9672 31.5069C48.9832 30.4814 50.1573 30.4788 51.1772 31.5069L55.1431 35.5155C56.1371 36.5209 57.4941 36.5445 57.5076 36.5445H58.2974C58.6223 36.5445 58.8847 36.8081 58.8847 37.1374C58.8847 37.4639 58.6223 37.7288 58.2974 37.7288" fill="#BDC431"/>
<path fill-rule="evenodd" clip-rule="evenodd" d="M58.3028 33.8879L57.5103 33.896C57.4377 33.896 55.6665 33.8989 54.3065 32.5526C52.9395 31.2004 50.8308 29.1114 50.2993 28.5862C49.7317 28.0242 49.3031 28.0281 48.7486 28.601L47.571 29.8156C47.4631 29.9283 47.3132 29.992 47.159 29.9948C47.0029 29.9959 46.8527 29.9349 46.7423 29.8251L43.9375 27.0486C43.37 26.4859 42.9416 26.4902 42.3848 27.0637L41.2084 28.2779C40.9908 28.5024 40.6016 28.5061 40.3785 28.2867L36.791 24.7347L31.7038 29.9782C31.4772 30.2106 31.1051 30.2145 30.8751 29.9876L29.6726 28.7958C29.1065 28.2339 28.6768 28.2385 28.1214 28.8117C27.7175 29.2277 26.3804 30.6067 25.1776 31.8473L24.1947 32.8589C22.8606 34.234 21.0902 34.2663 21.018 34.2682L20.2258 34.2757C19.9005 34.2803 19.6356 34.018 19.6319 33.6898C19.6281 33.3626 19.8897 33.0952 20.2127 33.0914L21.0039 33.0842C21.016 33.0824 22.3717 33.0453 23.3576 32.0311L24.3386 31.0186C25.5441 29.778 26.8806 28.3997 27.2846 27.9838C28.291 26.9444 29.4652 26.9332 30.4939 27.9506L31.2754 28.7251L36.3643 23.4825C36.59 23.2489 36.9609 23.2449 37.1924 23.4738L40.7809 27.0255L41.548 26.2357C42.5549 25.1963 43.7318 25.185 44.7572 26.2023L47.144 28.5644L47.9116 27.7735C48.9177 26.7361 50.0924 26.7231 51.1214 27.7401C51.6506 28.2673 53.7601 30.3539 55.1268 31.707C56.1444 32.7142 57.4859 32.7131 57.5003 32.7112L58.2934 32.704C58.6168 32.7001 58.8809 32.9641 58.8843 33.2908C58.8869 33.6176 58.6279 33.8852 58.3028 33.8879" fill="#EA912B"/>
<path fill-rule="evenodd" clip-rule="evenodd" d="M58.2974 30.4323H57.5055C57.4303 30.4323 55.661 30.4163 54.3124 29.0569L50.3485 25.0492C50.065 24.7656 49.8044 24.6219 49.5717 24.6219C49.3377 24.6227 49.0771 24.7656 48.7958 25.0492C48.0028 25.8486 47.6075 26.2501 47.6075 26.2508C47.4977 26.3635 47.347 26.4254 47.1915 26.4254C47.0373 26.4254 46.8866 26.3635 46.778 26.2508C46.778 26.2508 44.7948 24.247 44.0004 23.4471C43.7208 23.1616 43.4576 23.0195 43.2254 23.0195C42.9918 23.0195 42.7303 23.1616 42.4499 23.446L41.2613 24.6477C41.1514 24.7594 41.0019 24.8223 40.8446 24.8223C40.6894 24.8223 40.5413 24.7594 40.4314 24.6477L36.8775 21.0603L31.7392 26.2508C31.5089 26.4835 31.1377 26.4835 30.9107 26.2508L29.7184 25.0492C29.1591 24.4814 28.7319 24.4805 28.1688 25.0492L24.2017 29.0569C22.8549 30.4163 21.0846 30.4323 21.0103 30.4323H20.2172C19.8922 30.4323 19.6309 30.1663 19.6309 29.8394C19.6309 29.5129 19.8922 29.2477 20.2172 29.2477H21.0103C21.0204 29.2477 22.3762 29.2231 23.3721 28.2185L27.3393 24.213C27.849 23.6978 28.3872 23.4376 28.9434 23.4376C29.5011 23.4376 30.0398 23.6978 30.55 24.213L31.3227 24.9946L36.4628 19.8039C36.693 19.5732 37.0638 19.5732 37.2914 19.8039L40.8446 23.3921L41.6193 22.6087C42.1291 22.0945 42.6679 21.8336 43.2254 21.8336C43.7811 21.8354 44.3201 22.0945 44.8287 22.6087C45.3963 23.1802 46.5674 24.3626 47.1915 24.9946C47.3846 24.802 47.6421 24.5395 47.969 24.213C48.4756 23.6978 49.0144 23.4376 49.5717 23.4376C50.128 23.4376 50.667 23.6978 51.1772 24.213L55.1431 28.2185C56.1496 29.2359 57.4925 29.2477 57.5055 29.2477H58.2974C58.6223 29.2477 58.8847 29.5129 58.8847 29.8394C58.8847 30.1663 58.6223 30.4323 58.2974 30.4323" fill="#EF4E23"/>
<path fill-rule="evenodd" clip-rule="evenodd" d="M56.9656 48.3742C57.4269 48.3742 57.6391 48.2586 57.7282 48.1638C57.8238 48.068 57.9388 47.8559 57.9388 47.3906C57.9388 46.9294 57.8254 46.716 57.7301 46.6199C57.6356 46.5251 57.4213 46.4082 56.9656 46.4082C56.513 46.4082 56.2997 46.5205 56.1964 46.6199C56.1051 46.7185 55.9932 46.9294 55.9932 47.3906C55.9932 47.861 56.1075 48.068 56.2009 48.1621C56.2959 48.2586 56.5067 48.3742 56.9656 48.3742" fill="#0F1420"/>
<path fill-rule="evenodd" clip-rule="evenodd" d="M42.8689 54.0368C42.8689 53.6173 43.0726 53.366 43.7212 53.366H46.1663V55.0594H43.7212C43.0726 55.0594 42.8689 54.6568 42.8689 54.2401V54.0368ZM45.5313 49.4902H42.3155C42.1164 49.4902 41.7071 49.7374 41.7071 50.1742C41.7071 50.9053 42.3155 50.8408 42.5092 50.8408H45.5313C45.7526 50.8408 45.9882 51.0901 46.087 51.2716C46.2323 51.5386 46.1638 51.7993 46.1657 52.0745H43.7207C41.5717 52.0745 41.3418 53.3451 41.3418 53.9777V54.1798C41.3418 54.8094 41.5717 56.2788 43.7207 56.2788H47.7096V52.047C47.693 50.4234 46.9001 49.4902 45.5313 49.4902V49.4902Z" fill="#0F1420"/>
<path fill-rule="evenodd" clip-rule="evenodd" d="M22.1046 54.1601C22.1046 53.7405 22.3091 53.4893 22.9581 53.4893H25.4018V55.1826H22.9581C22.3091 55.1826 22.1046 54.7801 22.1046 54.3634V54.1601ZM24.7644 49.6133H21.5483C21.3509 49.6133 20.9435 49.8604 20.9435 50.2972C20.9435 51.0283 21.5483 50.9639 21.7478 50.9639H24.7662C24.9862 50.9639 25.2248 51.2131 25.3216 51.3946C25.4678 51.6616 25.3992 51.9224 25.4011 52.1975H22.9574C20.8081 52.1975 20.5762 53.4681 20.5762 54.1008V54.3028C20.5762 54.9324 20.8081 56.4019 22.9574 56.4019H26.9435V52.17C26.9297 50.5464 26.1346 49.6133 24.7644 49.6133V49.6133Z" fill="#0F1420"/>
<path fill-rule="evenodd" clip-rule="evenodd" d="M53.5704 49.477L52.135 49.4531C50.5251 49.4531 49.9521 50.6396 49.9521 51.6528V56.2785H51.498V51.6528C51.498 51.2705 51.637 50.8695 52.1639 50.8695L53.6515 50.8594C53.8495 50.8594 54.3962 50.7729 54.4009 50.2337C54.4063 49.6182 53.7694 49.477 53.5704 49.477" fill="#0F1420"/>
<path fill-rule="evenodd" clip-rule="evenodd" d="M34.8621 50.9055H36.5013C37.4925 50.9055 38.1425 51.1595 38.1425 52.3244V53.4687C38.1425 54.6313 37.4925 54.9515 36.5013 54.9515H34.8621V50.9055ZM36.5009 49.5156H33.3193V59.7616C33.3193 59.9601 33.4796 60.3384 34.0899 60.3384C34.7009 60.3384 34.8617 59.9601 34.8617 59.7616V56.2784H36.5009C37.2865 56.2784 39.6865 56.2784 39.6865 53.4683V52.3241C39.684 49.5156 37.2865 49.5156 36.5009 49.5156V49.5156Z" fill="#0F1420"/>
<path fill-rule="evenodd" clip-rule="evenodd" d="M29.9974 45.1406C29.3871 45.1406 29.2246 45.5172 29.2246 45.7169V56.2785H30.7703V45.7169C30.7703 45.5172 30.6117 45.1406 29.9974 45.1406" fill="#0F1420"/>
<path fill-rule="evenodd" clip-rule="evenodd" d="M56.9662 49.4902C56.3548 49.4902 56.1943 49.8685 56.1943 50.067V56.2788H57.7391V50.067C57.7391 49.8685 57.578 49.4902 56.9662 49.4902" fill="#0F1420"/>
</g>
</g>
<path d="M87.2344 20.7207V59.2476" stroke="#E5EDF4" stroke-width="1.45385" stroke-linecap="round"/>
<path fill-rule="evenodd" clip-rule="evenodd" d="M147.773 41.358C147.598 41.358 147.451 41.301 147.332 41.1869C147.213 41.0728 147.154 40.9262 147.154 40.7469V28.2307H142.963C142.788 28.2307 142.641 28.1737 142.522 28.0596C142.403 27.9455 142.344 27.7989 142.344 27.6196V24.8817C142.344 24.7024 142.403 24.5517 142.522 24.4294C142.641 24.3072 142.788 24.2461 142.963 24.2461H155.893C156.068 24.2461 156.214 24.3072 156.333 24.4294C156.453 24.5517 156.512 24.7024 156.512 24.8817V27.6196C156.512 27.7989 156.453 27.9455 156.333 28.0596C156.214 28.1737 156.068 28.2307 155.893 28.2307H151.702V40.7469C151.702 40.9262 151.642 41.0728 151.523 41.1869C151.404 41.301 151.257 41.358 151.083 41.358H147.773ZM158.941 41.3577C158.783 41.3577 158.644 41.2966 158.525 41.1743C158.406 41.0521 158.346 40.9095 158.346 40.7466V29.2816C158.346 29.1023 158.402 28.9515 158.513 28.8293C158.624 28.7071 158.767 28.646 158.941 28.646H161.846C162.021 28.646 162.168 28.7071 162.287 28.8293C162.406 28.9515 162.466 29.1023 162.466 29.2816V30.2105C162.91 29.7053 163.43 29.3182 164.025 29.0493C164.621 28.7804 165.283 28.646 166.014 28.646H167.085C167.26 28.646 167.403 28.703 167.514 28.8171C167.625 28.9312 167.68 29.0778 167.68 29.2571V31.9217C167.68 32.0847 167.625 32.2273 167.514 32.3495C167.403 32.4717 167.26 32.5328 167.085 32.5328H164.68C164.045 32.5328 163.557 32.7121 163.216 33.0706C162.874 33.4292 162.704 33.9344 162.704 34.5863V40.7466C162.704 40.9258 162.644 41.0725 162.525 41.1866C162.406 41.3007 162.259 41.3577 162.085 41.3577H158.941ZM173.872 41.6021C172.475 41.6021 171.348 41.1214 170.49 40.1599C169.633 39.1983 169.204 37.8375 169.204 36.0774V29.2571C169.204 29.0778 169.264 28.9312 169.383 28.8171C169.502 28.703 169.641 28.646 169.8 28.646H172.967C173.141 28.646 173.288 28.703 173.407 28.8171C173.526 28.9312 173.586 29.0778 173.586 29.2571V35.9308C173.586 37.4464 174.245 38.2042 175.562 38.2042C176.197 38.2042 176.693 38.0046 177.051 37.6053C177.408 37.206 177.586 36.6478 177.586 35.9308V29.2571C177.586 29.0778 177.646 28.9312 177.765 28.8171C177.884 28.703 178.031 28.646 178.205 28.646H181.349C181.523 28.646 181.666 28.703 181.777 28.8171C181.888 28.9312 181.944 29.0778 181.944 29.2571V40.7466C181.944 40.9095 181.888 41.0521 181.777 41.1743C181.666 41.2966 181.523 41.3577 181.349 41.3577H178.444C178.269 41.3577 178.122 41.3007 178.003 41.1866C177.884 41.0725 177.824 40.9258 177.824 40.7466V39.8176C176.999 41.0073 175.681 41.6021 173.872 41.6021ZM190.468 41.6024C188.531 41.6024 187.007 41.0687 185.896 40.0012C184.785 38.9337 184.213 37.3815 184.182 35.3443V34.5865C184.245 32.6471 184.832 31.1315 185.944 30.0396C187.055 28.9477 188.555 28.4018 190.444 28.4018C191.809 28.4018 192.964 28.6829 193.909 29.2451C194.853 29.8074 195.56 30.5815 196.028 31.5675C196.497 32.5535 196.731 33.6739 196.731 34.9287V35.5399C196.731 35.7192 196.671 35.8699 196.552 35.9921C196.433 36.1144 196.286 36.1755 196.112 36.1755H188.563V36.3221C188.579 37.0555 188.746 37.6463 189.063 38.0945C189.381 38.5426 189.833 38.7667 190.42 38.7667C190.801 38.7667 191.107 38.6893 191.337 38.5345C191.567 38.3797 191.786 38.18 191.992 37.9356C192.135 37.7726 192.25 37.6707 192.337 37.63C192.425 37.5892 192.564 37.5689 192.754 37.5689H195.873C196.016 37.5689 196.139 37.6137 196.243 37.7033C196.346 37.793 196.397 37.903 196.397 38.0333C196.397 38.4571 196.163 38.9541 195.695 39.5245C195.227 40.0949 194.544 40.5838 193.647 40.9913C192.75 41.3987 191.69 41.6024 190.468 41.6024ZM192.35 33.6825V33.6337C192.35 32.8514 192.183 32.2443 191.85 31.8125C191.516 31.3806 191.048 31.1646 190.445 31.1646C189.842 31.1646 189.377 31.3806 189.052 31.8125C188.726 32.2443 188.564 32.8514 188.564 33.6337V33.6825H192.35Z" fill="#3F4756"/>
<path fill-rule="evenodd" clip-rule="evenodd" d="M147.773 41.358C147.598 41.358 147.451 41.301 147.332 41.1869C147.213 41.0728 147.154 40.9262 147.154 40.7469V28.2307H142.963C142.788 28.2307 142.641 28.1737 142.522 28.0596C142.403 27.9455 142.344 27.7989 142.344 27.6196V24.8817C142.344 24.7024 142.403 24.5517 142.522 24.4294C142.641 24.3072 142.788 24.2461 142.963 24.2461H155.893C156.068 24.2461 156.214 24.3072 156.333 24.4294C156.453 24.5517 156.512 24.7024 156.512 24.8817V27.6196C156.512 27.7989 156.453 27.9455 156.333 28.0596C156.214 28.1737 156.068 28.2307 155.893 28.2307H151.702V40.7469C151.702 40.9262 151.642 41.0728 151.523 41.1869C151.404 41.301 151.257 41.358 151.083 41.358H147.773ZM158.941 41.3577C158.783 41.3577 158.644 41.2966 158.525 41.1743C158.406 41.0521 158.346 40.9095 158.346 40.7466V29.2816C158.346 29.1023 158.402 28.9515 158.513 28.8293C158.624 28.7071 158.767 28.646 158.941 28.646H161.846C162.021 28.646 162.168 28.7071 162.287 28.8293C162.406 28.9515 162.466 29.1023 162.466 29.2816V30.2105C162.91 29.7053 163.43 29.3182 164.025 29.0493C164.621 28.7804 165.283 28.646 166.014 28.646H167.085C167.26 28.646 167.403 28.703 167.514 28.8171C167.625 28.9312 167.68 29.0778 167.68 29.2571V31.9217C167.68 32.0847 167.625 32.2273 167.514 32.3495C167.403 32.4717 167.26 32.5328 167.085 32.5328H164.68C164.045 32.5328 163.557 32.7121 163.216 33.0706C162.874 33.4292 162.704 33.9344 162.704 34.5863V40.7466C162.704 40.9258 162.644 41.0725 162.525 41.1866C162.406 41.3007 162.259 41.3577 162.085 41.3577H158.941ZM173.872 41.6021C172.475 41.6021 171.348 41.1214 170.49 40.1599C169.633 39.1983 169.204 37.8375 169.204 36.0774V29.2571C169.204 29.0778 169.264 28.9312 169.383 28.8171C169.502 28.703 169.641 28.646 169.8 28.646H172.967C173.141 28.646 173.288 28.703 173.407 28.8171C173.526 28.9312 173.586 29.0778 173.586 29.2571V35.9308C173.586 37.4464 174.245 38.2042 175.562 38.2042C176.197 38.2042 176.693 38.0046 177.051 37.6053C177.408 37.206 177.586 36.6478 177.586 35.9308V29.2571C177.586 29.0778 177.646 28.9312 177.765 28.8171C177.884 28.703 178.031 28.646 178.205 28.646H181.349C181.523 28.646 181.666 28.703 181.777 28.8171C181.888 28.9312 181.944 29.0778 181.944 29.2571V40.7466C181.944 40.9095 181.888 41.0521 181.777 41.1743C181.666 41.2966 181.523 41.3577 181.349 41.3577H178.444C178.269 41.3577 178.122 41.3007 178.003 41.1866C177.884 41.0725 177.824 40.9258 177.824 40.7466V39.8176C176.999 41.0073 175.681 41.6021 173.872 41.6021ZM190.468 41.6024C188.531 41.6024 187.007 41.0687 185.896 40.0012C184.785 38.9337 184.213 37.3815 184.182 35.3443V34.5865C184.245 32.6471 184.832 31.1315 185.944 30.0396C187.055 28.9477 188.555 28.4018 190.444 28.4018C191.809 28.4018 192.964 28.6829 193.909 29.2451C194.853 29.8074 195.56 30.5815 196.028 31.5675C196.497 32.5535 196.731 33.6739 196.731 34.9287V35.5399C196.731 35.7192 196.671 35.8699 196.552 35.9921C196.433 36.1144 196.286 36.1755 196.112 36.1755H188.563V36.3221C188.579 37.0555 188.746 37.6463 189.063 38.0945C189.381 38.5426 189.833 38.7667 190.42 38.7667C190.801 38.7667 191.107 38.6893 191.337 38.5345C191.567 38.3797 191.786 38.18 191.992 37.9356C192.135 37.7726 192.25 37.6707 192.337 37.63C192.425 37.5892 192.564 37.5689 192.754 37.5689H195.873C196.016 37.5689 196.139 37.6137 196.243 37.7033C196.346 37.793 196.397 37.903 196.397 38.0333C196.397 38.4571 196.163 38.9541 195.695 39.5245C195.227 40.0949 194.544 40.5838 193.647 40.9913C192.75 41.3987 191.69 41.6024 190.468 41.6024ZM192.35 33.6825V33.6337C192.35 32.8514 192.183 32.2443 191.85 31.8125C191.516 31.3806 191.048 31.1646 190.445 31.1646C189.842 31.1646 189.377 31.3806 189.052 31.8125C188.726 32.2443 188.564 32.8514 188.564 33.6337V33.6825H192.35Z" fill="#3F4756"/>
<path fill-rule="evenodd" clip-rule="evenodd" d="M130.912 32.2041L131.642 31.5482C131.642 31.5482 132.372 30.7989 132.737 31.8297C133.102 32.8596 133.344 34.5455 132.493 35.4352C132.493 35.4352 131.186 32.8596 130.912 32.2041" fill="#D8B212"/>
<path fill-rule="evenodd" clip-rule="evenodd" d="M107.74 30.9875C107.74 30.9875 109.747 28.7395 112.21 27.6157C114.674 26.4919 116.179 26.445 118.825 26.6322C121.471 26.8194 123.66 25.0397 123.934 24.0098C123.934 24.0098 124.846 24.6653 124.299 26.3512C124.299 26.3512 125.759 25.6957 126.124 25.0397C126.124 25.0397 126.58 26.1639 125.85 27.2877C125.85 27.2877 129.864 28.8802 131.05 32.1582C132.236 35.4366 133.879 36.8414 133.97 38.1524C133.97 38.1524 134.152 39.4639 133.24 40.4943C132.328 41.5242 131.415 40.7749 131.415 40.7749C131.415 40.7749 130.412 40.5876 130.047 39.5577C130.047 39.5577 126.671 38.6211 124.938 39.6511C124.938 39.6511 118.004 42.2735 120.832 37.9652C120.832 37.9652 118.643 39.1828 117.73 40.6815C116.818 42.1802 113.898 42.5546 112.073 41.5242C110.249 40.4943 110.158 38.8084 110.34 37.1225C110.522 35.4366 108.059 31.2216 105.14 31.0344C105.14 31.0344 105.596 30.5661 107.74 30.9875" fill="#FDD835"/>
<mask id="mask0_2622_55526" style="mask-type:luminance" maskUnits="userSpaceOnUse" x="103" y="31" width="32" height="20">
<path fill-rule="evenodd" clip-rule="evenodd" d="M103.953 31.0332H134.093V50.4321H103.953V31.0332Z" fill="white"/>
</mask>
<g mask="url(#mask0_2622_55526)">
<path fill-rule="evenodd" clip-rule="evenodd" d="M133.968 38.1517C133.968 38.1517 134.151 39.4631 133.238 40.4935C132.326 41.5235 131.414 40.7741 131.414 40.7741C131.414 40.7741 130.41 40.5869 130.045 39.557C130.045 39.557 126.67 38.6204 124.936 39.6504C124.936 39.6504 118.002 42.2728 120.831 37.9645C120.831 37.9645 118.641 39.1821 117.729 40.6807C116.816 42.1794 113.897 42.5539 112.072 41.5235C110.247 40.4935 110.156 38.8076 110.338 37.1217C110.521 35.4358 108.058 31.2209 105.138 31.0332C105.138 31.0332 101.306 37.2151 107.419 40.5869C107.419 40.5869 109.791 50.0468 122.017 50.4217C134.242 50.7961 134.424 40.9613 133.968 38.1517" fill="#D1AA02"/>
</g>
<path fill-rule="evenodd" clip-rule="evenodd" d="M111.981 31.8762C111.981 31.8762 111.16 36.8401 115.722 38.9009C115.722 38.9009 118.733 39.3692 121.835 36.1846C121.835 36.1846 122.488 30.7032 118.094 30.2837C114.171 29.9093 111.981 31.8762 111.981 31.8762" fill="#BF8D00"/>
<path fill-rule="evenodd" clip-rule="evenodd" d="M119.554 33.9605C119.554 35.4734 118.359 36.7002 116.885 36.7002C115.411 36.7002 114.217 35.4734 114.217 33.9605C114.217 32.4475 115.411 31.2207 116.885 31.2207C118.359 31.2207 119.554 32.4475 119.554 33.9605" fill="white"/>
<path fill-rule="evenodd" clip-rule="evenodd" d="M118.388 33.9613C118.388 34.8794 117.663 35.6237 116.769 35.6237C115.874 35.6237 115.149 34.8794 115.149 33.9613C115.149 33.0431 115.874 32.2988 116.769 32.2988C117.663 32.2988 118.388 33.0431 118.388 33.9613" fill="#3F4756"/>
<path fill-rule="evenodd" clip-rule="evenodd" d="M116.199 33.0015C116.199 33.2858 115.975 33.5167 115.697 33.5167C115.42 33.5167 115.195 33.2858 115.195 33.0015C115.195 32.7168 115.42 32.4863 115.697 32.4863C115.975 32.4863 116.199 32.7168 116.199 33.0015" fill="white"/>
<path fill-rule="evenodd" clip-rule="evenodd" d="M128.814 32.439C128.814 32.7233 128.59 32.9542 128.312 32.9542C128.035 32.9542 127.811 32.7233 127.811 32.439C127.811 32.1543 128.035 31.9238 128.312 31.9238C128.59 31.9238 128.814 32.1543 128.814 32.439" fill="white"/>
<path fill-rule="evenodd" clip-rule="evenodd" d="M126.807 29.8514C123.792 30.1716 124 35.0825 128.991 37.6442C128.991 37.6442 132.108 36.5489 130.655 31.2923C130.655 31.2923 129.824 29.5312 126.807 29.8514Z" fill="#BF8D00"/>
<path fill-rule="evenodd" clip-rule="evenodd" d="M129.879 33.1108C129.879 34.3173 128.926 35.2958 127.75 35.2958C126.575 35.2958 125.622 34.3173 125.622 33.1108C125.622 31.9037 126.575 30.9258 127.75 30.9258C128.926 30.9258 129.879 31.9037 129.879 33.1108" fill="white"/>
<path fill-rule="evenodd" clip-rule="evenodd" d="M128.815 33.0572C128.815 33.8585 128.181 34.5085 127.4 34.5085C126.619 34.5085 125.986 33.8585 125.986 33.0572C125.986 32.2554 126.619 31.6055 127.4 31.6055C128.181 31.6055 128.815 32.2554 128.815 33.0572" fill="#3F4756"/>
<path fill-rule="evenodd" clip-rule="evenodd" d="M105.138 32.627C105.138 32.627 107.784 32.8142 109.244 36.467C109.244 36.467 107.328 37.0287 105.777 36.467C105.777 36.467 104.774 35.2494 105.138 32.627" fill="#BF8D00"/>
<path fill-rule="evenodd" clip-rule="evenodd" d="M118.528 26.612C118.528 26.612 121.469 27.2877 122.473 27.6622C123.476 28.037 125.21 28.2243 125.849 27.2877C125.849 27.2877 126.579 26.2573 126.122 25.0397C126.122 25.0397 125.349 25.807 124.297 26.3512C124.297 26.3512 124.936 24.9463 123.933 24.0098C123.933 24.0098 122.612 26.779 118.528 26.612" fill="#FDD835"/>
<path fill-rule="evenodd" clip-rule="evenodd" d="M124.754 39.4631C124.754 39.4631 124.846 38.6204 125.393 38.4332C125.941 38.246 128.313 38.0583 129.499 38.4332C129.499 38.4332 130.229 38.7138 130.32 39.6503C130.411 40.5869 129.773 42.3666 128.039 42.3666C126.853 42.3666 124.572 41.6177 124.754 39.4631" fill="#3F4756"/>
<path fill-rule="evenodd" clip-rule="evenodd" d="M131.414 40.7747C131.414 40.7747 130.592 45.9262 126.031 45.9262C126.031 45.9262 121.168 46.3135 121.182 50.3818C121.182 50.3818 127.582 51.2392 131.414 47.3186C131.414 47.3186 134.698 44.3337 133.968 38.2461C133.968 38.2461 134.141 40.1169 132.869 40.8207C132.869 40.8207 132.326 41.2434 131.414 40.7747" fill="#BF8D00"/>
<path fill-rule="evenodd" clip-rule="evenodd" d="M118.667 41.5742L119.112 41.979L118.231 42.8838C118.231 42.8838 121.15 44.7569 124.435 44.5697C124.435 44.5697 126.351 44.5697 127.263 43.6332C127.263 43.6332 127.491 42.7836 127.628 42.342C127.628 42.342 128.084 42.3217 128.516 42.3194L128.221 43.8668C128.221 43.8668 128.507 44.4676 129.687 44.3549C129.687 44.3549 129.362 44.6631 129.088 44.9442C129.088 44.9442 128.221 44.8972 127.674 44.3351C127.674 44.3351 123.842 47.1448 117.82 43.2114L116.769 44.2224C116.769 44.2224 117.298 42.5108 118.667 41.5742" fill="#3F4756"/>
<mask id="mask1_2622_55526" style="mask-type:luminance" maskUnits="userSpaceOnUse" x="112" y="49" width="21" height="7">
<path fill-rule="evenodd" clip-rule="evenodd" d="M112.212 49.0527H132.588V55.7496H112.212V49.0527Z" fill="white"/>
</mask>
<g mask="url(#mask1_2622_55526)">
<path fill-rule="evenodd" clip-rule="evenodd" d="M123.662 52.6587C123.662 52.6587 122.749 53.2208 122.111 52.5653C122.111 52.5653 119.465 54.719 115.542 55.7498C115.542 55.7498 112.212 51.1135 112.212 49.0527C112.212 49.0527 118.142 49.0527 122.111 50.4106C122.111 50.4106 123.023 49.9428 123.662 50.3173C123.662 50.3173 130.216 48.8586 132.588 49.3274C132.588 49.3274 131.655 53.6394 129.931 55.7498C129.931 55.7498 126.901 54.6725 123.662 52.6587" fill="#3F4756"/>
</g>
<path fill-rule="evenodd" clip-rule="evenodd" d="M127.36 32.3576C127.36 32.7468 127.052 33.0622 126.673 33.0622C126.294 33.0622 125.986 32.7468 125.986 32.3576C125.986 31.9685 126.294 31.6523 126.673 31.6523C127.052 31.6523 127.36 31.9685 127.36 32.3576" fill="white"/>
<path fill-rule="evenodd" clip-rule="evenodd" d="M123.934 24.0098C123.934 24.0098 123.352 26.7431 122.063 27.4285L124.372 26.3268C124.372 26.3268 124.928 24.9739 123.934 24.0098" fill="#D8B212"/>
<path fill-rule="evenodd" clip-rule="evenodd" d="M126.124 25.0391C126.124 25.0391 126.614 26.1164 125.85 27.2871C125.85 27.2871 125.188 27.8372 124.687 27.8487C124.687 27.8487 126.101 26.3036 126.124 25.0391" fill="#D8B212"/>
<path fill-rule="evenodd" clip-rule="evenodd" d="M143.569 55.8142C143.472 55.8142 143.387 55.7768 143.314 55.7019C143.241 55.627 143.204 55.5396 143.204 55.4397V45.7158C143.204 45.606 143.238 45.5136 143.306 45.4386C143.374 45.3637 143.462 45.3263 143.569 45.3263H148.079C149.314 45.3263 150.234 45.586 150.837 46.1054C151.44 46.6248 151.742 47.3639 151.742 48.3228C151.742 48.8023 151.618 49.2168 151.37 49.5664C151.122 49.916 150.847 50.1707 150.545 50.3305C150.944 50.5103 151.28 50.8075 151.552 51.222C151.825 51.6365 151.961 52.1035 151.961 52.6229C151.961 53.6317 151.637 54.4158 150.99 54.9752C150.343 55.5346 149.417 55.8142 148.21 55.8142H143.569ZM147.772 49.4756C148.132 49.4756 148.409 49.3757 148.604 49.1759C148.799 48.9762 148.896 48.7165 148.896 48.3968C148.896 48.0872 148.801 47.835 148.611 47.6402C148.422 47.4454 148.142 47.348 147.772 47.348H145.948V49.4756H147.772ZM147.903 53.7907C148.283 53.7907 148.577 53.6783 148.786 53.4536C148.996 53.2288 149.1 52.9517 149.1 52.622C149.1 52.2824 148.993 52.0003 148.779 51.7755C148.565 51.5508 148.273 51.4384 147.903 51.4384H145.948V53.7907H147.903ZM153.887 55.8142C153.79 55.8142 153.705 55.7768 153.632 55.7019C153.559 55.627 153.522 55.5396 153.522 55.4397V45.7158C153.522 45.606 153.556 45.5136 153.624 45.4386C153.693 45.3637 153.78 45.3263 153.887 45.3263H157.901C159.185 45.3263 160.19 45.6259 160.914 46.2252C161.639 46.8246 162.002 47.6686 162.002 48.7573C162.002 49.4565 161.844 50.0509 161.527 50.5403C161.211 51.0297 160.776 51.4093 160.221 51.679L162.191 55.3348C162.221 55.3947 162.235 55.4497 162.235 55.4996C162.235 55.5795 162.206 55.6519 162.148 55.7168C162.089 55.7818 162.016 55.8142 161.929 55.8142H159.871C159.589 55.8142 159.389 55.6794 159.273 55.4097L157.667 52.1584H156.266V55.4397C156.266 55.5495 156.23 55.6394 156.157 55.7094C156.084 55.7793 155.994 55.8142 155.887 55.8142H153.887ZM157.887 49.9551C158.305 49.9551 158.624 49.8477 158.843 49.6329C159.062 49.4182 159.171 49.121 159.171 48.7415C159.171 48.3619 159.062 48.0573 158.843 47.8275C158.624 47.5978 158.305 47.4829 157.887 47.4829H156.267V49.9551H157.887ZM167.898 55.9634C166.516 55.9634 165.426 55.6188 164.629 54.9296C163.831 54.2404 163.408 53.2265 163.359 51.8881C163.349 51.6084 163.344 51.1789 163.344 50.5996C163.344 50.0202 163.349 49.5857 163.359 49.2961C163.398 47.9776 163.823 46.9612 164.636 46.2471C165.448 45.5329 166.536 45.1758 167.898 45.1758C169.25 45.1758 170.333 45.5329 171.145 46.2471C171.958 46.9612 172.383 47.9776 172.422 49.2961C172.442 49.8754 172.451 50.3099 172.451 50.5996C172.451 50.8992 172.442 51.3287 172.422 51.8881C172.373 53.2265 171.953 54.2404 171.16 54.9296C170.367 55.6188 169.279 55.9634 167.898 55.9634ZM167.898 53.7161C168.404 53.7161 168.808 53.5587 169.11 53.2441C169.411 52.9295 169.572 52.4475 169.591 51.7983C169.611 51.2189 169.62 50.8044 169.62 50.5547C169.62 50.305 169.611 49.9004 169.591 49.3411C169.572 48.6918 169.411 48.2099 169.11 47.8952C168.808 47.5806 168.404 47.4233 167.898 47.4233C167.383 47.4233 166.974 47.5806 166.672 47.8952C166.371 48.2099 166.21 48.6918 166.191 49.3411C166.181 49.6208 166.176 50.0253 166.176 50.5547C166.176 51.0941 166.181 51.5086 166.191 51.7983C166.21 52.4475 166.371 52.9295 166.672 53.2441C166.974 53.5587 167.383 53.7161 167.898 53.7161ZM174.32 55.8136C174.212 55.8136 174.122 55.7786 174.05 55.7087C173.977 55.6388 173.94 55.5489 173.94 55.439V45.5504C173.94 45.4405 173.977 45.3506 174.05 45.2807C174.122 45.2107 174.212 45.1758 174.32 45.1758H176.1C176.207 45.1758 176.295 45.2107 176.363 45.2807C176.431 45.3506 176.465 45.4405 176.465 45.5504V50.5546L178.406 48.2772C178.425 48.2572 178.462 48.2223 178.515 48.1723C178.569 48.1224 178.625 48.0849 178.683 48.06C178.742 48.035 178.815 48.0225 178.902 48.0225H180.96C181.048 48.0225 181.123 48.055 181.186 48.1199C181.25 48.1848 181.281 48.2672 181.281 48.3671C181.281 48.457 181.247 48.5369 181.179 48.6068L178.61 51.5135L181.544 55.2442C181.612 55.3341 181.646 55.409 181.646 55.469C181.646 55.5688 181.614 55.6513 181.551 55.7162C181.488 55.7811 181.408 55.8136 181.31 55.8136H179.194C179.068 55.8136 178.973 55.7936 178.91 55.7536C178.846 55.7137 178.771 55.6488 178.683 55.5589L176.465 52.7421V55.439C176.465 55.5389 176.431 55.6263 176.363 55.7012C176.295 55.7761 176.207 55.8136 176.1 55.8136H174.32ZM186.127 55.9641C184.94 55.9641 184.006 55.6369 183.325 54.9827C182.644 54.3284 182.294 53.377 182.274 52.1285V51.664C182.313 50.4754 182.673 49.5464 183.354 48.8772C184.035 48.208 184.955 47.8733 186.112 47.8733C186.949 47.8733 187.657 48.0456 188.236 48.3903C188.815 48.7349 189.248 49.2093 189.535 49.8136C189.822 50.4179 189.965 51.1046 189.965 51.8738V52.2483C189.965 52.3582 189.929 52.4506 189.856 52.5255C189.783 52.6004 189.693 52.6379 189.586 52.6379H184.96V52.7278C184.969 53.1773 185.071 53.5393 185.266 53.814C185.461 54.0887 185.738 54.2261 186.098 54.2261C186.331 54.2261 186.519 54.1786 186.66 54.0837C186.801 53.9888 186.935 53.8665 187.061 53.7166C187.149 53.6168 187.219 53.5543 187.273 53.5294C187.326 53.5044 187.411 53.4919 187.528 53.4919H189.44C189.528 53.4919 189.603 53.5194 189.666 53.5743C189.73 53.6292 189.761 53.6967 189.761 53.7766C189.761 54.0363 189.618 54.3409 189.331 54.6905C189.044 55.0401 188.625 55.3398 188.075 55.5895C187.526 55.8392 186.876 55.9641 186.127 55.9641ZM187.279 51.1089V51.079C187.279 50.5995 187.177 50.2275 186.973 49.9628C186.769 49.6981 186.482 49.5657 186.112 49.5657C185.742 49.5657 185.458 49.6981 185.258 49.9628C185.059 50.2275 184.959 50.5995 184.959 51.079V51.1089H187.279ZM191.644 55.8135C191.547 55.8135 191.461 55.776 191.388 55.7011C191.315 55.6262 191.279 55.5388 191.279 55.4389V48.412C191.279 48.3021 191.313 48.2097 191.381 48.1348C191.449 48.0599 191.537 48.0224 191.644 48.0224H193.424C193.531 48.0224 193.621 48.0599 193.694 48.1348C193.767 48.2097 193.804 48.3021 193.804 48.412V48.9813C194.076 48.6717 194.395 48.4345 194.76 48.2696C195.125 48.1048 195.531 48.0224 195.978 48.0224H196.635C196.742 48.0224 196.83 48.0574 196.898 48.1273C196.966 48.1972 197 48.2871 197 48.397V50.0301C197 50.13 196.966 50.2174 196.898 50.2923C196.83 50.3672 196.742 50.4047 196.635 50.4047H195.161C194.772 50.4047 194.473 50.5146 194.264 50.7343C194.054 50.9541 193.95 51.2637 193.95 51.6632V55.4389C193.95 55.5488 193.913 55.6387 193.84 55.7086C193.767 55.7785 193.677 55.8135 193.57 55.8135H191.644Z" fill="#3F4756"/>
<defs>
<filter id="filter0_d_2622_55526" x="0.730766" y="0.730766" width="77.0541" height="78.5072" filterUnits="userSpaceOnUse" color-interpolation-filters="sRGB">
<feFlood flood-opacity="0" result="BackgroundImageFix"/>
<feColorMatrix in="SourceAlpha" type="matrix" values="0 0 0 0 0 0 0 0 0 0 0 0 0 0 0 0 0 0 127 0" result="hardAlpha"/>
<feOffset/>
<feGaussianBlur stdDeviation="3.63462"/>
<feComposite in2="hardAlpha" operator="out"/>
<feColorMatrix type="matrix" values="0 0 0 0 0 0 0 0 0 0 0 0 0 0 0 0 0 0 0.1 0"/>
<feBlend mode="normal" in2="BackgroundImageFix" result="effect1_dropShadow_2622_55526"/>
<feBlend mode="normal" in="SourceGraphic" in2="effect1_dropShadow_2622_55526" result="shape"/>
</filter>
<clipPath id="clip0_2622_55526">
<rect x="8" y="8" width="62.5154" height="63.9693" rx="5.81539" fill="white"/>
</clipPath>
</defs>
</svg>
