<svg width="78" height="80" viewBox="0 0 78 80" fill="none" xmlns="http://www.w3.org/2000/svg">
<g filter="url(#filter0_d_2622_55502)">
<g clip-path="url(#clip0_2622_55502)">
<rect x="8" y="8" width="62.5154" height="63.9693" fill="white"/>
<path fill-rule="evenodd" clip-rule="evenodd" d="M58.2974 41.38H57.5055C57.4303 41.38 55.661 41.3636 54.3124 40.0044L50.3485 35.9964C50.0669 35.7125 49.8056 35.5679 49.5717 35.5679C49.3377 35.5679 49.0771 35.7113 48.7958 35.9942L47.6075 37.1981C47.4977 37.3097 47.347 37.3727 47.1915 37.3727C47.0373 37.3727 46.8866 37.3097 46.778 37.1981C46.778 37.1981 44.7948 35.1945 44.0004 34.3941C43.7208 34.1088 43.4576 33.9651 43.2254 33.9651C42.9918 33.9651 42.7303 34.1088 42.4499 34.3923L41.2585 35.5947C41.0405 35.8165 40.6519 35.8182 40.4314 35.5947L36.8775 32.0061L31.7392 37.1981C31.628 37.3097 31.4789 37.3727 31.3227 37.3727C31.1681 37.3727 31.0194 37.3097 30.9107 37.1981L29.7184 35.9942C29.1591 35.4278 28.7319 35.4278 28.1688 35.9942L24.2017 40.0044C22.8549 41.3636 21.0846 41.38 21.0103 41.38H20.2172C19.8922 41.38 19.6309 41.1136 19.6309 40.7864C19.6309 40.46 19.8922 40.1952 20.2172 40.1952H21.0103C21.0204 40.1952 22.3762 40.1699 23.3721 39.1661L27.3393 35.1586C28.3552 34.1301 29.5311 34.1289 30.55 35.1586L31.3227 35.942L36.4628 30.7499C36.693 30.5183 37.0638 30.5183 37.2914 30.7499L40.8446 34.3386L41.6193 33.5558C42.1291 33.0412 42.6679 32.7806 43.2254 32.7806C43.7811 32.7806 44.3201 33.0412 44.8287 33.5558C45.3963 34.1264 46.5674 35.3097 47.1915 35.942L47.9672 35.1586C48.4756 34.6451 49.0144 34.3838 49.5717 34.3838C50.128 34.3838 50.667 34.6433 51.1772 35.1586L55.1431 39.1661C56.1496 40.1829 57.4925 40.1952 57.5055 40.1952H58.2974C58.6223 40.1952 58.8847 40.46 58.8847 40.7864C58.8847 41.1136 58.6223 41.38 58.2974 41.38" fill="#81B941"/>
<path fill-rule="evenodd" clip-rule="evenodd" d="M58.2974 37.7288H57.5055C57.4303 37.7288 55.661 37.7128 54.3124 36.3527L50.3468 32.3458C49.7857 31.7784 49.3589 31.7784 48.7958 32.3458L47.6075 33.5479C47.3862 33.7703 46.9971 33.7703 46.778 33.5479L44.0004 30.742C43.436 30.1722 43.0136 30.1703 42.4499 30.742L41.2585 31.9447C41.0305 32.1753 40.6597 32.1753 40.4314 31.9455L36.8775 28.3559L31.7392 33.5479C31.5089 33.7785 31.1377 33.7785 30.9107 33.5479L29.7184 32.3458C29.1591 31.7784 28.7298 31.7784 28.1688 32.3458L24.2017 36.3527C22.8549 37.7128 21.0846 37.7288 21.0103 37.7288H20.2172C19.8922 37.7288 19.6309 37.4639 19.6309 37.1374C19.6309 36.8081 19.8922 36.5445 20.2172 36.5445H21.0103C21.0204 36.5445 22.3762 36.5209 23.3721 35.5155L27.3393 31.5069C28.3568 30.4814 29.5311 30.4788 30.55 31.5069L31.3227 32.2903L36.4628 27.0991C36.693 26.868 37.0638 26.868 37.2914 27.0991L40.8446 30.6884L41.6193 29.9042C42.6396 28.8729 43.8082 28.8748 44.8287 29.9042L47.1915 32.2903L47.9672 31.5069C48.9832 30.4814 50.1573 30.4788 51.1772 31.5069L55.1431 35.5155C56.1371 36.5209 57.4941 36.5445 57.5076 36.5445H58.2974C58.6223 36.5445 58.8847 36.8081 58.8847 37.1374C58.8847 37.4639 58.6223 37.7288 58.2974 37.7288" fill="#BDC431"/>
<path fill-rule="evenodd" clip-rule="evenodd" d="M58.3028 33.8879L57.5103 33.896C57.4377 33.896 55.6665 33.8989 54.3065 32.5526C52.9395 31.2004 50.8308 29.1114 50.2993 28.5862C49.7317 28.0242 49.3031 28.0281 48.7486 28.601L47.571 29.8156C47.4631 29.9283 47.3132 29.992 47.159 29.9948C47.0029 29.9959 46.8527 29.9349 46.7423 29.8251L43.9375 27.0486C43.37 26.4859 42.9416 26.4902 42.3848 27.0637L41.2084 28.2779C40.9908 28.5024 40.6016 28.5061 40.3785 28.2867L36.791 24.7347L31.7038 29.9782C31.4772 30.2106 31.1051 30.2145 30.8751 29.9876L29.6726 28.7958C29.1065 28.2339 28.6768 28.2385 28.1214 28.8117C27.7175 29.2277 26.3804 30.6067 25.1776 31.8473L24.1947 32.8589C22.8606 34.234 21.0902 34.2663 21.018 34.2682L20.2258 34.2757C19.9005 34.2803 19.6356 34.018 19.6319 33.6898C19.6281 33.3626 19.8897 33.0952 20.2127 33.0914L21.0039 33.0842C21.016 33.0824 22.3717 33.0453 23.3576 32.0311L24.3386 31.0186C25.5441 29.778 26.8806 28.3997 27.2846 27.9838C28.291 26.9444 29.4652 26.9332 30.4939 27.9506L31.2754 28.7251L36.3643 23.4825C36.59 23.2489 36.9609 23.2449 37.1924 23.4738L40.7809 27.0255L41.548 26.2357C42.5549 25.1963 43.7318 25.185 44.7572 26.2023L47.144 28.5644L47.9116 27.7735C48.9177 26.7361 50.0924 26.7231 51.1214 27.7401C51.6506 28.2673 53.7601 30.3539 55.1268 31.707C56.1444 32.7142 57.4859 32.7131 57.5003 32.7112L58.2934 32.704C58.6168 32.7001 58.8809 32.9641 58.8843 33.2908C58.8869 33.6176 58.6279 33.8852 58.3028 33.8879" fill="#EA912B"/>
<path fill-rule="evenodd" clip-rule="evenodd" d="M58.2974 30.4323H57.5055C57.4303 30.4323 55.661 30.4163 54.3124 29.0569L50.3485 25.0492C50.065 24.7656 49.8044 24.6219 49.5717 24.6219C49.3377 24.6227 49.0771 24.7656 48.7958 25.0492C48.0028 25.8486 47.6075 26.2501 47.6075 26.2508C47.4977 26.3635 47.347 26.4254 47.1915 26.4254C47.0373 26.4254 46.8866 26.3635 46.778 26.2508C46.778 26.2508 44.7948 24.247 44.0004 23.4471C43.7208 23.1616 43.4576 23.0195 43.2254 23.0195C42.9918 23.0195 42.7303 23.1616 42.4499 23.446L41.2613 24.6477C41.1514 24.7594 41.0019 24.8223 40.8446 24.8223C40.6894 24.8223 40.5413 24.7594 40.4314 24.6477L36.8775 21.0603L31.7392 26.2508C31.5089 26.4835 31.1377 26.4835 30.9107 26.2508L29.7184 25.0492C29.1591 24.4814 28.7319 24.4805 28.1688 25.0492L24.2017 29.0569C22.8549 30.4163 21.0846 30.4323 21.0103 30.4323H20.2172C19.8922 30.4323 19.6309 30.1663 19.6309 29.8394C19.6309 29.5129 19.8922 29.2477 20.2172 29.2477H21.0103C21.0204 29.2477 22.3762 29.2231 23.3721 28.2185L27.3393 24.213C27.849 23.6978 28.3872 23.4376 28.9434 23.4376C29.5011 23.4376 30.0398 23.6978 30.55 24.213L31.3227 24.9946L36.4628 19.8039C36.693 19.5732 37.0638 19.5732 37.2914 19.8039L40.8446 23.3921L41.6193 22.6087C42.1291 22.0945 42.6679 21.8336 43.2254 21.8336C43.7811 21.8354 44.3201 22.0945 44.8287 22.6087C45.3963 23.1802 46.5674 24.3626 47.1915 24.9946C47.3846 24.802 47.6421 24.5395 47.969 24.213C48.4756 23.6978 49.0144 23.4376 49.5717 23.4376C50.128 23.4376 50.667 23.6978 51.1772 24.213L55.1431 28.2185C56.1496 29.2359 57.4925 29.2477 57.5055 29.2477H58.2974C58.6223 29.2477 58.8847 29.5129 58.8847 29.8394C58.8847 30.1663 58.6223 30.4323 58.2974 30.4323" fill="#EF4E23"/>
<path fill-rule="evenodd" clip-rule="evenodd" d="M56.9656 48.3742C57.4269 48.3742 57.6391 48.2586 57.7282 48.1638C57.8238 48.068 57.9388 47.8559 57.9388 47.3906C57.9388 46.9294 57.8254 46.716 57.7301 46.6199C57.6356 46.5251 57.4213 46.4082 56.9656 46.4082C56.513 46.4082 56.2997 46.5205 56.1964 46.6199C56.1051 46.7185 55.9932 46.9294 55.9932 47.3906C55.9932 47.861 56.1075 48.068 56.2009 48.1621C56.2959 48.2586 56.5067 48.3742 56.9656 48.3742" fill="#0F1420"/>
<path fill-rule="evenodd" clip-rule="evenodd" d="M42.8689 54.0368C42.8689 53.6173 43.0726 53.366 43.7212 53.366H46.1663V55.0594H43.7212C43.0726 55.0594 42.8689 54.6568 42.8689 54.2401V54.0368ZM45.5313 49.4902H42.3155C42.1164 49.4902 41.7071 49.7374 41.7071 50.1742C41.7071 50.9053 42.3155 50.8408 42.5092 50.8408H45.5313C45.7526 50.8408 45.9882 51.0901 46.087 51.2716C46.2323 51.5386 46.1638 51.7993 46.1657 52.0745H43.7207C41.5717 52.0745 41.3418 53.3451 41.3418 53.9777V54.1798C41.3418 54.8094 41.5717 56.2788 43.7207 56.2788H47.7096V52.047C47.693 50.4234 46.9001 49.4902 45.5313 49.4902V49.4902Z" fill="#0F1420"/>
<path fill-rule="evenodd" clip-rule="evenodd" d="M22.1046 54.1601C22.1046 53.7405 22.3091 53.4893 22.9581 53.4893H25.4018V55.1826H22.9581C22.3091 55.1826 22.1046 54.7801 22.1046 54.3634V54.1601ZM24.7644 49.6133H21.5483C21.3509 49.6133 20.9435 49.8604 20.9435 50.2972C20.9435 51.0283 21.5483 50.9639 21.7478 50.9639H24.7662C24.9862 50.9639 25.2248 51.2131 25.3216 51.3946C25.4678 51.6616 25.3992 51.9224 25.4011 52.1975H22.9574C20.8081 52.1975 20.5762 53.4681 20.5762 54.1008V54.3028C20.5762 54.9324 20.8081 56.4019 22.9574 56.4019H26.9435V52.17C26.9297 50.5464 26.1346 49.6133 24.7644 49.6133V49.6133Z" fill="#0F1420"/>
<path fill-rule="evenodd" clip-rule="evenodd" d="M53.5704 49.477L52.135 49.4531C50.5251 49.4531 49.9521 50.6396 49.9521 51.6528V56.2785H51.498V51.6528C51.498 51.2705 51.637 50.8695 52.1639 50.8695L53.6515 50.8594C53.8495 50.8594 54.3962 50.7729 54.4009 50.2337C54.4063 49.6182 53.7694 49.477 53.5704 49.477" fill="#0F1420"/>
<path fill-rule="evenodd" clip-rule="evenodd" d="M34.8621 50.9055H36.5013C37.4925 50.9055 38.1425 51.1595 38.1425 52.3244V53.4687C38.1425 54.6313 37.4925 54.9515 36.5013 54.9515H34.8621V50.9055ZM36.5009 49.5156H33.3193V59.7616C33.3193 59.9601 33.4796 60.3384 34.0899 60.3384C34.7009 60.3384 34.8617 59.9601 34.8617 59.7616V56.2784H36.5009C37.2865 56.2784 39.6865 56.2784 39.6865 53.4683V52.3241C39.684 49.5156 37.2865 49.5156 36.5009 49.5156V49.5156Z" fill="#0F1420"/>
<path fill-rule="evenodd" clip-rule="evenodd" d="M29.9974 45.1406C29.3871 45.1406 29.2246 45.5172 29.2246 45.7169V56.2785H30.7703V45.7169C30.7703 45.5172 30.6117 45.1406 29.9974 45.1406" fill="#0F1420"/>
<path fill-rule="evenodd" clip-rule="evenodd" d="M56.9662 49.4902C56.3548 49.4902 56.1943 49.8685 56.1943 50.067V56.2788H57.7391V50.067C57.7391 49.8685 57.578 49.4902 56.9662 49.4902" fill="#0F1420"/>
</g>
</g>
<defs>
<filter id="filter0_d_2622_55502" x="0.730766" y="0.730766" width="77.0541" height="78.5072" filterUnits="userSpaceOnUse" color-interpolation-filters="sRGB">
<feFlood flood-opacity="0" result="BackgroundImageFix"/>
<feColorMatrix in="SourceAlpha" type="matrix" values="0 0 0 0 0 0 0 0 0 0 0 0 0 0 0 0 0 0 127 0" result="hardAlpha"/>
<feOffset/>
<feGaussianBlur stdDeviation="3.63462"/>
<feComposite in2="hardAlpha" operator="out"/>
<feColorMatrix type="matrix" values="0 0 0 0 0 0 0 0 0 0 0 0 0 0 0 0 0 0 0.1 0"/>
<feBlend mode="normal" in2="BackgroundImageFix" result="effect1_dropShadow_2622_55502"/>
<feBlend mode="normal" in="SourceGraphic" in2="effect1_dropShadow_2622_55502" result="shape"/>
</filter>
<clipPath id="clip0_2622_55502">
<rect x="8" y="8" width="62.5154" height="63.9693" rx="5.81539" fill="white"/>
</clipPath>
</defs>
</svg>
